<svg width="32" height="32" viewBox="0 0 32 32" fill="none" xmlns="http://www.w3.org/2000/svg">
<path fill-rule="evenodd" clip-rule="evenodd" d="M19.9969 11.342C19.9969 10.668 19.744 10.0216 19.2939 9.54507C18.8438 9.06851 18.2334 8.80078 17.5969 8.80078H14.3969C13.7604 8.80078 13.1499 9.06851 12.6998 9.54507C12.2497 10.0216 11.9969 10.668 11.9969 11.342H11.1969C10.5604 11.342 9.94991 11.6097 9.49982 12.0863C9.04973 12.5628 8.79688 13.2092 8.79688 13.8831V20.6596C8.79688 21.3336 9.04973 21.9799 9.49982 22.4565C9.94991 22.9331 10.5604 23.2008 11.1969 23.2008H20.7969C21.4334 23.2008 22.0438 22.9331 22.4939 22.4565C22.944 21.9799 23.1969 21.3336 23.1969 20.6596V13.8831C23.1969 13.2092 22.944 12.5628 22.4939 12.0863C22.0438 11.6097 21.4334 11.342 20.7969 11.342H19.9969ZM17.5969 10.4949H14.3969C14.1847 10.4949 13.9812 10.5841 13.8312 10.743C13.6812 10.9019 13.5969 11.1173 13.5969 11.342H18.3969C18.3969 11.1173 18.3126 10.9019 18.1626 10.743C18.0125 10.5841 17.809 10.4949 17.5969 10.4949ZM11.1969 13.0361H20.7969C21.009 13.0361 21.2125 13.1253 21.3626 13.2842C21.5126 13.443 21.5969 13.6585 21.5969 13.8831V20.6596C21.5969 20.8843 21.5126 21.0997 21.3626 21.2586C21.2125 21.4174 21.009 21.5067 20.7969 21.5067H11.1969C10.9847 21.5067 10.7812 21.4174 10.6312 21.2586C10.4812 21.0997 10.3969 20.8843 10.3969 20.6596V13.8831C10.3969 13.6585 10.4812 13.443 10.6312 13.2842C10.7812 13.1253 10.9847 13.0361 11.1969 13.0361Z" fill="url(#paint0_linear_179_7371)"/>
<rect x="1" y="1" width="30" height="30" rx="4" stroke="url(#paint1_linear_179_7371)" stroke-width="2"/>
<defs>
<linearGradient id="paint0_linear_179_7371" x1="-9.98312" y1="-18.6901" x2="37.6971" y2="-15.7897" gradientUnits="userSpaceOnUse">
<stop offset="0.344582" stop-color="#EE611A"/>
<stop offset="0.609343" stop-color="#9F3EFF"/>
<stop offset="0.782387" stop-color="#4DAFEC"/>
</linearGradient>
<linearGradient id="paint1_linear_179_7371" x1="-41.7333" y1="-61.091" x2="64.2228" y2="-54.6454" gradientUnits="userSpaceOnUse">
<stop offset="0.344582" stop-color="#EE611A"/>
<stop offset="0.609343" stop-color="#9F3EFF"/>
<stop offset="0.782387" stop-color="#4DAFEC"/>
</linearGradient>
</defs>
</svg>
