<svg width="100" height="80" viewBox="0 0 100 80" fill="none" xmlns="http://www.w3.org/2000/svg">
<rect x="10" width="80" height="80" rx="40" fill="#354858"/>
<rect x="10.5" y="0.5" width="79" height="79" rx="39.5" stroke="#2C333A" stroke-opacity="0.2"/>
<path d="M61.6689 23.3334H45.0022C43.1639 23.3334 41.6689 24.8284 41.6689 26.6667V35.9767L33.8239 43.8217C33.5909 44.0548 33.4322 44.3517 33.3679 44.675C33.3037 44.9982 33.3367 45.3333 33.4628 45.6378C33.5889 45.9423 33.8025 46.2026 34.0765 46.3857C34.3505 46.5689 34.6727 46.6666 35.0022 46.6667V55C35.0022 55.4421 35.1778 55.866 35.4904 56.1786C35.803 56.4911 36.2269 56.6667 36.6689 56.6667H63.3356C63.7776 56.6667 64.2015 56.4911 64.5141 56.1786C64.8267 55.866 65.0022 55.4421 65.0022 55V26.6667C65.0022 24.8284 63.5072 23.3334 61.6689 23.3334ZM48.3356 53.3334H38.3356V44.0234L43.3356 39.0234L48.3356 44.0234V53.3334ZM61.6689 53.3334H51.6689V46.6667C51.9989 46.6674 52.3216 46.5701 52.5961 46.3871C52.8706 46.2041 53.0846 45.9437 53.2109 45.6388C53.3371 45.334 53.37 44.9985 53.3052 44.675C53.2405 44.3515 53.0811 44.0545 52.8472 43.8217L45.0022 35.9767V26.6667H61.6689V53.3334Z" fill="white"/>
<path d="M48.3307 30H51.6641V33.3333H48.3307V30ZM54.9974 30H58.3307V33.3333H54.9974V30ZM54.9974 36.7183H58.3307V40H54.9974V36.7183ZM54.9974 43.3333H58.3307V46.6667H54.9974V43.3333ZM41.6641 45H44.9974V48.3333H41.6641V45Z" fill="white"/>
</svg>
