<svg width="33" height="32" viewBox="0 0 33 32" fill="none" xmlns="http://www.w3.org/2000/svg">
<path d="M25.0899 21.5996C24.2306 21.5996 23.5344 20.903 23.5344 20.0441C23.5344 19.8677 23.5702 19.7012 23.624 19.5432L19.8322 16.2781C19.5662 16.4899 19.2342 16.6218 18.8677 16.6218C18.4449 16.6218 18.0626 16.452 17.7826 16.1782L14.8124 17.6653C14.7545 18.472 14.0891 19.1107 13.2677 19.1107C12.4088 19.1107 11.7122 18.4141 11.7122 17.5552C11.7122 17.32 11.7682 17.0994 11.8615 16.8997L8.83313 13.4077C8.66326 13.4712 8.48189 13.5107 8.28993 13.5107C7.43095 13.5107 6.73438 12.8141 6.73438 11.9552C6.73438 11.0962 7.43095 10.3996 8.28993 10.3996C9.14891 10.3996 9.84549 11.0962 9.84549 11.9552C9.84549 12.1621 9.80318 12.359 9.72975 12.5394L12.8073 16.0768C12.9538 16.0313 13.1062 15.9996 13.2677 15.9996C13.7204 15.9996 14.1242 16.1962 14.4085 16.5052L17.3137 15.0485C17.324 14.198 18.0146 13.5107 18.8677 13.5107C19.727 13.5107 20.4233 14.2073 20.4233 15.0663C20.4233 15.094 20.4167 15.1198 20.4152 15.1472L24.4615 18.6232C24.6541 18.538 24.8656 18.4885 25.0899 18.4885C25.9492 18.4885 26.6455 19.1848 26.6455 20.0441C26.6455 20.903 25.9492 21.5996 25.09 21.5996H25.0899Z" fill="url(#paint0_linear_179_7391)"/>
<rect x="1" y="-1" width="30" height="30" rx="4" transform="matrix(1 0 0 -1 0.335938 30)" stroke="url(#paint1_linear_179_7391)" stroke-width="2"/>
<defs>
<linearGradient id="paint0_linear_179_7391" x1="-19.233" y1="42.9814" x2="46.1742" y2="35.9079" gradientUnits="userSpaceOnUse">
<stop offset="0.344582" stop-color="#EE611A"/>
<stop offset="0.609343" stop-color="#9F3EFF"/>
<stop offset="0.782387" stop-color="#4DAFEC"/>
</linearGradient>
<linearGradient id="paint1_linear_179_7391" x1="-41.7333" y1="-61.091" x2="64.2228" y2="-54.6454" gradientUnits="userSpaceOnUse">
<stop offset="0.344582" stop-color="#EE611A"/>
<stop offset="0.609343" stop-color="#9F3EFF"/>
<stop offset="0.782387" stop-color="#4DAFEC"/>
</linearGradient>
</defs>
</svg>
