<svg width="24" height="24" viewBox="0 0 24 24" fill="none" xmlns="http://www.w3.org/2000/svg">
<g opacity="0.9">
<path fill-rule="evenodd" clip-rule="evenodd" d="M7.465 1.06612C8.638 1.01212 9.012 1.00012 12 1.00012C14.988 1.00012 15.362 1.01312 16.534 1.06612C17.706 1.11912 18.506 1.30612 19.206 1.57712C19.939 1.85412 20.604 2.28712 21.154 2.84712C21.714 3.39612 22.146 4.06012 22.422 4.79412C22.694 5.49412 22.88 6.29412 22.934 7.46412C22.988 8.63912 23 9.01312 23 12.0001C23 14.9881 22.987 15.3621 22.934 16.5351C22.881 17.7051 22.694 18.5051 22.422 19.2051C22.146 19.9392 21.7133 20.6043 21.154 21.1541C20.604 21.7141 19.939 22.1461 19.206 22.4221C18.506 22.6941 17.706 22.8801 16.536 22.9341C15.362 22.9881 14.988 23.0001 12 23.0001C9.012 23.0001 8.638 22.9871 7.465 22.9341C6.295 22.8811 5.495 22.6941 4.795 22.4221C4.06092 22.1461 3.39582 21.7134 2.846 21.1541C2.28638 20.6048 1.85331 19.94 1.577 19.2061C1.306 18.5061 1.12 17.7061 1.066 16.5361C1.012 15.3611 1 14.9871 1 12.0001C1 9.01212 1.013 8.63812 1.066 7.46612C1.119 6.29412 1.306 5.49412 1.577 4.79412C1.85372 4.0602 2.28712 3.39544 2.847 2.84612C3.39604 2.28662 4.06047 1.85357 4.794 1.57712C5.494 1.30612 6.294 1.12012 7.464 1.06612H7.465ZM16.445 3.04612C15.285 2.99312 14.937 2.98212 12 2.98212C9.063 2.98212 8.715 2.99312 7.555 3.04612C6.482 3.09512 5.9 3.27412 5.512 3.42512C4.999 3.62512 4.632 3.86212 4.247 4.24712C3.88205 4.60217 3.60118 5.0344 3.425 5.51212C3.274 5.90012 3.095 6.48212 3.046 7.55512C2.993 8.71512 2.982 9.06312 2.982 12.0001C2.982 14.9371 2.993 15.2851 3.046 16.4451C3.095 17.5181 3.274 18.1001 3.425 18.4881C3.601 18.9651 3.882 19.3981 4.247 19.7531C4.602 20.1181 5.035 20.3991 5.512 20.5751C5.9 20.7261 6.482 20.9051 7.555 20.9541C8.715 21.0071 9.062 21.0181 12 21.0181C14.938 21.0181 15.285 21.0071 16.445 20.9541C17.518 20.9051 18.1 20.7261 18.488 20.5751C19.001 20.3751 19.368 20.1381 19.753 19.7531C20.118 19.3981 20.399 18.9651 20.575 18.4881C20.726 18.1001 20.905 17.5181 20.954 16.4451C21.007 15.2851 21.018 14.9371 21.018 12.0001C21.018 9.06312 21.007 8.71512 20.954 7.55512C20.905 6.48212 20.726 5.90012 20.575 5.51212C20.375 4.99912 20.138 4.63212 19.753 4.24712C19.3979 3.88219 18.9657 3.60133 18.488 3.42512C18.1 3.27412 17.518 3.09512 16.445 3.04612ZM10.595 15.3911C11.3797 15.7178 12.2534 15.7618 13.0669 15.5158C13.8805 15.2698 14.5834 14.749 15.0556 14.0424C15.5278 13.3357 15.7401 12.487 15.656 11.6412C15.572 10.7955 15.197 10.0051 14.595 9.40512C14.2112 9.0216 13.7472 8.72793 13.2363 8.54527C12.7255 8.3626 12.1804 8.29548 11.6405 8.34874C11.1006 8.40199 10.5792 8.5743 10.1138 8.85325C9.64845 9.13221 9.25074 9.51087 8.9493 9.96197C8.64786 10.4131 8.45019 10.9254 8.37052 11.4621C8.29084 11.9988 8.33115 12.5464 8.48854 13.0656C8.64593 13.5849 8.91648 14.0627 9.28072 14.4648C9.64496 14.867 10.0938 15.1833 10.595 15.3911ZM8.002 8.00212C8.52702 7.4771 9.15032 7.06063 9.8363 6.77648C10.5223 6.49234 11.2575 6.3461 12 6.3461C12.7425 6.3461 13.4777 6.49234 14.1637 6.77648C14.8497 7.06062 15.473 7.4771 15.998 8.00212C16.523 8.52715 16.9395 9.15044 17.2236 9.83642C17.5078 10.5224 17.654 11.2576 17.654 12.0001C17.654 12.7426 17.5078 13.4778 17.2236 14.1638C16.9395 14.8498 16.523 15.4731 15.998 15.9981C14.9377 17.0585 13.4995 17.6541 12 17.6541C10.5005 17.6541 9.06234 17.0585 8.002 15.9981C6.94166 14.9378 6.34597 13.4997 6.34597 12.0001C6.34597 10.5006 6.94166 9.06246 8.002 8.00212ZM18.908 7.18812C19.0381 7.06539 19.1423 6.9178 19.2143 6.7541C19.2863 6.59039 19.3248 6.41389 19.3274 6.23505C19.33 6.05621 19.2967 5.87867 19.2295 5.71293C19.1622 5.54719 19.0624 5.39663 18.936 5.27016C18.8095 5.14369 18.6589 5.04388 18.4932 4.97664C18.3275 4.9094 18.1499 4.8761 17.9711 4.87871C17.7922 4.88131 17.6157 4.91978 17.452 4.99182C17.2883 5.06386 17.1407 5.16802 17.018 5.29812C16.7793 5.55115 16.6486 5.88724 16.6537 6.23505C16.6588 6.58286 16.7992 6.915 17.0452 7.16096C17.2911 7.40693 17.6233 7.54735 17.9711 7.55242C18.3189 7.55749 18.655 7.42681 18.908 7.18812Z" fill="#2C333A"/>
</g>
</svg>
