<svg width="80" height="80" viewBox="0 0 80 80" fill="none" xmlns="http://www.w3.org/2000/svg">
<rect width="80" height="80" rx="40" fill="#354858"/>
<rect x="0.5" y="0.5" width="79" height="79" rx="39.5" stroke="#2C333A" stroke-opacity="0.2"/>
<path d="M40 32L50.6667 37.3333V58.6667H29.3333V37.3333L40 32ZM40 32V20V32ZM20 58.6667H60H20ZM24 58.6667V42.6667H29.3333L24 58.6667ZM56 58.6667V42.6667H50.6667L56 58.6667ZM37.3333 58.6667V50.6667H42.6667V58.6667H37.3333ZM40 21.3333H48V26.6667H40V21.3333ZM40 45.3333C39.2928 45.3333 38.6145 45.0524 38.1144 44.5523C37.6143 44.0522 37.3333 43.3739 37.3333 42.6667C37.3333 41.9594 37.6143 41.2811 38.1144 40.781C38.6145 40.281 39.2928 40 40 40C40.7072 40 41.3855 40.281 41.8856 40.781C42.3857 41.2811 42.6667 41.9594 42.6667 42.6667C42.6667 43.3739 42.3857 44.0522 41.8856 44.5523C41.3855 45.0524 40.7072 45.3333 40 45.3333Z" stroke="white" stroke-width="1.5"/>
</svg>
