<svg width="159" height="30" viewBox="0 0 159 30" fill="none" xmlns="http://www.w3.org/2000/svg">
<path d="M23.553 0.640625L24.1311 1.04688C23.9124 2.05729 23.6103 2.85417 23.2249 3.4375C22.8499 4.02083 22.2926 4.48438 21.553 4.82812C20.8238 5.16146 19.9801 5.32812 19.0218 5.32812C18.5113 5.32812 17.8915 5.29688 17.1624 5.23438V21.0312C18.7457 20.5521 20.0061 19.9375 20.9436 19.1875C21.8811 18.4271 22.7509 17.3385 23.553 15.9219L24.1311 16.2031C23.6728 17.599 23.1415 18.7188 22.5374 19.5625C21.5686 20.9271 20.3186 22.0104 18.7874 22.8125C17.2561 23.6042 15.4853 24 13.4749 24C11.5165 24 9.68321 23.625 7.97488 22.875C6.98529 22.4375 6.07904 21.8229 5.25613 21.0312C4.43321 20.2396 3.75613 19.2812 3.22488 18.1562C2.70404 17.0312 2.44363 15.7552 2.44363 14.3281C2.44363 12.8906 2.73008 11.5156 3.303 10.2031C3.87592 8.89062 4.71967 7.63542 5.83425 6.4375C6.54258 5.6875 7.54258 4.85938 8.83425 3.95312L6.8655 3.84375C6.13633 3.80208 5.32904 3.95833 4.44363 4.3125C3.55821 4.65625 2.8655 5.11979 2.3655 5.70312C1.87592 6.28646 1.44883 7.15625 1.08425 8.3125L0.506126 7.96875C0.860293 6.48958 1.31863 5.33854 1.88113 4.51562C2.63113 3.42188 3.62071 2.57812 4.84988 1.98438C6.07904 1.38021 7.48008 1.07812 9.053 1.07812C10.1468 1.07812 12.079 1.30729 14.8499 1.76562C17.6207 2.22396 19.527 2.45312 20.5686 2.45312C21.2665 2.45312 21.7978 2.34896 22.1624 2.14062C22.5374 1.92188 23.0009 1.42188 23.553 0.640625ZM10.5843 4.10938L9.75613 4.03125C8.36029 5.22917 7.33425 6.42708 6.678 7.625C5.79258 9.23958 5.34988 10.901 5.34988 12.6094C5.34988 15.526 6.54779 17.9062 8.94363 19.75C9.70404 19.1146 10.1676 18.599 10.3343 18.2031C10.5009 17.8073 10.5843 17 10.5843 15.7812V4.10938ZM16.4436 5.09375C15.454 4.95833 14.579 4.8125 13.8186 4.65625V14C13.8186 15.0938 13.7718 15.7917 13.678 16.0938C13.5947 16.3854 13.3915 16.7188 13.0686 17.0938C12.4853 17.7396 11.3186 18.7604 9.56863 20.1562C10.4436 20.5833 11.152 20.8698 11.6936 21.0156C12.6311 21.2656 13.5322 21.3906 14.3968 21.3906C14.8551 21.3906 15.5374 21.3333 16.4436 21.2188V5.09375ZM34.7401 24.256C33.1401 24.256 31.7321 23.9253 30.5161 23.264C29.3215 22.6027 28.3935 21.6533 27.7321 20.416C27.0708 19.1787 26.7401 17.7387 26.7401 16.096C26.7401 14.4533 27.0708 13.024 27.7321 11.808C28.3935 10.5707 29.3215 9.62133 30.5161 8.96C31.7321 8.29867 33.1401 7.968 34.7401 7.968C36.3401 7.968 37.7375 8.29867 38.9321 8.96C40.1481 9.62133 41.0761 10.5707 41.7161 11.808C42.3775 13.024 42.7081 14.4533 42.7081 16.096C42.7081 17.7387 42.3775 19.1787 41.7161 20.416C41.0761 21.6533 40.1481 22.6027 38.9321 23.264C37.7375 23.9253 36.3401 24.256 34.7401 24.256ZM34.7081 21.152C36.0095 21.152 37.0015 20.7253 37.6841 19.872C38.3668 19.0187 38.7081 17.76 38.7081 16.096C38.7081 14.4533 38.3668 13.2053 37.6841 12.352C37.0015 11.4773 36.0201 11.04 34.7401 11.04C33.4601 11.04 32.4681 11.4773 31.7641 12.352C31.0815 13.2053 30.7401 14.4533 30.7401 16.096C30.7401 17.76 31.0815 19.0187 31.7641 19.872C32.4468 20.7253 33.4281 21.152 34.7081 21.152ZM55.7704 7.968C57.1144 7.968 58.309 8.30933 59.3544 8.992C60.421 9.67467 61.2424 10.6453 61.8184 11.904C62.4157 13.1413 62.7144 14.5707 62.7144 16.192C62.7144 17.8133 62.4157 19.232 61.8184 20.448C61.2424 21.664 60.4317 22.6027 59.3864 23.264C58.341 23.9253 57.1357 24.256 55.7704 24.256C54.661 24.256 53.669 24.0213 52.7944 23.552C51.9197 23.0827 51.2477 22.432 50.7784 21.6V28.128C50.7784 28.6827 50.597 29.12 50.2344 29.44C49.8717 29.76 49.3917 29.92 48.7944 29.92C48.197 29.92 47.7064 29.7493 47.3224 29.408C46.9597 29.0667 46.7784 28.6187 46.7784 28.064V9.92C46.7784 9.344 46.949 8.88533 47.2904 8.544C47.653 8.20267 48.133 8.032 48.7304 8.032C49.3277 8.032 49.8077 8.20267 50.1704 8.544C50.533 8.88533 50.7144 9.344 50.7144 9.92V10.72C51.1837 9.84533 51.8557 9.17333 52.7304 8.704C53.6264 8.21333 54.6397 7.968 55.7704 7.968ZM54.7144 21.152C55.973 21.152 56.9544 20.7253 57.6584 19.872C58.3624 18.9973 58.7144 17.7707 58.7144 16.192C58.7144 14.5707 58.3624 13.312 57.6584 12.416C56.9544 11.52 55.973 11.072 54.7144 11.072C53.4344 11.072 52.4424 11.5093 51.7384 12.384C51.0557 13.2587 50.7144 14.5067 50.7144 16.128C50.7144 17.728 51.0557 18.9653 51.7384 19.84C52.4424 20.7147 53.4344 21.152 54.7144 21.152ZM75.7571 7.968C77.1225 7.968 78.3278 8.29867 79.3731 8.96C80.4185 9.62133 81.2291 10.56 81.8051 11.776C82.4025 12.992 82.7011 14.4107 82.7011 16.032C82.7011 17.6533 82.4025 19.0933 81.8051 20.352C81.2291 21.5893 80.4078 22.5493 79.3411 23.232C78.2958 23.9147 77.1011 24.256 75.7571 24.256C74.6265 24.256 73.6131 24.0107 72.7171 23.52C71.8425 23.0293 71.1705 22.3467 70.7011 21.472V22.272C70.7011 22.848 70.5198 23.3067 70.1571 23.648C69.7945 23.9893 69.3145 24.16 68.7171 24.16C68.1198 24.16 67.6398 23.9893 67.2771 23.648C66.9358 23.3067 66.7651 22.848 66.7651 22.272V3.136C66.7651 2.58133 66.9465 2.13333 67.3091 1.792C67.6931 1.45067 68.1838 1.28 68.7811 1.28C69.3785 1.28 69.8585 1.44 70.2211 1.76C70.5838 2.08 70.7651 2.51733 70.7651 3.072V10.624C71.2345 9.77067 71.9065 9.12 72.7811 8.672C73.6558 8.20267 74.6478 7.968 75.7571 7.968ZM74.7011 21.152C75.9598 21.152 76.9411 20.704 77.6451 19.808C78.3491 18.912 78.7011 17.6533 78.7011 16.032C78.7011 14.432 78.3491 13.2053 77.6451 12.352C76.9625 11.4987 75.9811 11.072 74.7011 11.072C73.4211 11.072 72.4291 11.5093 71.7251 12.384C71.0425 13.2373 70.7011 14.4747 70.7011 16.096C70.7011 17.7173 71.0425 18.9653 71.7251 19.84C72.4291 20.7147 73.4211 21.152 74.7011 21.152ZM95.4879 8.032C96.0425 7.98933 96.4799 8.10667 96.7999 8.384C97.1199 8.66133 97.2799 9.07733 97.2799 9.632C97.2799 10.208 97.1412 10.6347 96.8639 10.912C96.5865 11.1893 96.0852 11.3707 95.3599 11.456L94.3999 11.552C93.1412 11.68 92.2132 12.1067 91.6159 12.832C91.0399 13.5573 90.7519 14.464 90.7519 15.552V22.272C90.7519 22.8907 90.5599 23.3707 90.1759 23.712C89.7919 24.032 89.3119 24.192 88.7359 24.192C88.1599 24.192 87.6799 24.032 87.2959 23.712C86.9332 23.3707 86.7519 22.8907 86.7519 22.272V9.888C86.7519 9.29067 86.9332 8.832 87.2959 8.512C87.6799 8.192 88.1492 8.032 88.7039 8.032C89.2585 8.032 89.7065 8.192 90.0479 8.512C90.3892 8.81067 90.5599 9.248 90.5599 9.824V11.104C90.9652 10.1653 91.5625 9.44 92.3519 8.928C93.1625 8.416 94.0585 8.128 95.0399 8.064L95.4879 8.032ZM106.491 7.968C108.667 7.968 110.278 8.512 111.323 9.6C112.39 10.6667 112.923 12.2987 112.923 14.496V22.304C112.923 22.88 112.753 23.3387 112.411 23.68C112.07 24 111.601 24.16 111.003 24.16C110.449 24.16 109.99 23.9893 109.627 23.648C109.286 23.3067 109.115 22.8587 109.115 22.304V21.6C108.753 22.432 108.177 23.0827 107.387 23.552C106.619 24.0213 105.723 24.256 104.699 24.256C103.654 24.256 102.705 24.0427 101.851 23.616C100.998 23.1893 100.326 22.6027 99.8354 21.856C99.3447 21.1093 99.0994 20.2773 99.0994 19.36C99.0994 18.208 99.3874 17.3013 99.9634 16.64C100.561 15.9787 101.521 15.4987 102.843 15.2C104.166 14.9013 105.99 14.752 108.315 14.752H109.115V14.016C109.115 12.9707 108.891 12.2133 108.443 11.744C107.995 11.2533 107.27 11.008 106.267 11.008C105.649 11.008 105.019 11.104 104.379 11.296C103.739 11.4667 102.982 11.7227 102.107 12.064C101.553 12.3413 101.147 12.48 100.891 12.48C100.507 12.48 100.187 12.3413 99.9314 12.064C99.6967 11.7867 99.5794 11.424 99.5794 10.976C99.5794 10.6133 99.6647 10.304 99.8354 10.048C100.027 9.77067 100.337 9.51467 100.763 9.28C101.51 8.87467 102.395 8.55467 103.419 8.32C104.465 8.08533 105.489 7.968 106.491 7.968ZM105.499 21.376C106.566 21.376 107.43 21.024 108.091 20.32C108.774 19.5947 109.115 18.6667 109.115 17.536V16.864H108.539C107.11 16.864 106.001 16.928 105.211 17.056C104.422 17.184 103.857 17.408 103.515 17.728C103.174 18.048 103.003 18.4853 103.003 19.04C103.003 19.7227 103.238 20.288 103.707 20.736C104.198 21.1627 104.795 21.376 105.499 21.376ZM119.741 24.192C119.165 24.192 118.685 24.032 118.301 23.712C117.938 23.3707 117.757 22.8907 117.757 22.272V9.92C117.757 9.30133 117.938 8.832 118.301 8.512C118.685 8.192 119.165 8.032 119.741 8.032C120.317 8.032 120.797 8.192 121.181 8.512C121.565 8.832 121.757 9.30133 121.757 9.92V22.272C121.757 22.8907 121.565 23.3707 121.181 23.712C120.797 24.032 120.317 24.192 119.741 24.192ZM119.741 5.184C119.015 5.184 118.439 4.992 118.013 4.608C117.586 4.20267 117.373 3.68 117.373 3.04C117.373 2.4 117.586 1.888 118.013 1.504C118.439 1.12 119.015 0.927999 119.741 0.927999C120.445 0.927999 121.01 1.12 121.437 1.504C121.885 1.888 122.109 2.4 122.109 3.04C122.109 3.68 121.895 4.20267 121.469 4.608C121.042 4.992 120.466 5.184 119.741 5.184ZM135.738 7.968C137.615 7.968 139.012 8.50133 139.93 9.568C140.847 10.6347 141.306 12.2453 141.306 14.4V22.272C141.306 22.8693 141.124 23.3387 140.762 23.68C140.42 24.0213 139.94 24.192 139.322 24.192C138.703 24.192 138.212 24.0213 137.85 23.68C137.487 23.3387 137.306 22.8693 137.306 22.272V14.624C137.306 13.408 137.071 12.5227 136.602 11.968C136.154 11.4133 135.439 11.136 134.458 11.136C133.306 11.136 132.378 11.4987 131.674 12.224C130.991 12.9493 130.65 13.92 130.65 15.136V22.272C130.65 22.8693 130.468 23.3387 130.106 23.68C129.743 24.0213 129.252 24.192 128.634 24.192C128.015 24.192 127.524 24.0213 127.162 23.68C126.82 23.3387 126.65 22.8693 126.65 22.272V9.888C126.65 9.33333 126.831 8.88533 127.194 8.544C127.556 8.20267 128.047 8.032 128.666 8.032C129.22 8.032 129.668 8.20267 130.01 8.544C130.372 8.864 130.554 9.29067 130.554 9.824V10.688C131.087 9.81333 131.802 9.14133 132.698 8.672C133.594 8.20267 134.607 7.968 135.738 7.968ZM151.8 24.256C149.475 24.256 147.598 23.7973 146.168 22.88C145.486 22.4747 145.144 21.8987 145.144 21.152C145.144 20.7253 145.262 20.384 145.496 20.128C145.731 19.8507 146.019 19.712 146.36 19.712C146.723 19.712 147.224 19.8827 147.864 20.224C148.547 20.544 149.166 20.7893 149.72 20.96C150.296 21.1307 151.022 21.216 151.896 21.216C152.792 21.216 153.486 21.0667 153.976 20.768C154.488 20.4693 154.744 20.0533 154.744 19.52C154.744 19.1573 154.638 18.8693 154.424 18.656C154.232 18.4427 153.87 18.2507 153.336 18.08C152.824 17.888 152.035 17.6747 150.968 17.44C149.07 17.056 147.704 16.512 146.872 15.808C146.062 15.104 145.656 14.1333 145.656 12.896C145.656 11.9573 145.934 11.1147 146.488 10.368C147.043 9.6 147.8 9.01333 148.76 8.608C149.742 8.18133 150.851 7.968 152.088 7.968C152.984 7.968 153.848 8.08533 154.68 8.32C155.512 8.53333 156.259 8.85333 156.92 9.28C157.603 9.70667 157.944 10.272 157.944 10.976C157.944 11.4027 157.827 11.7653 157.592 12.064C157.358 12.3413 157.07 12.48 156.728 12.48C156.494 12.48 156.259 12.4373 156.024 12.352C155.811 12.2453 155.534 12.096 155.192 11.904C154.574 11.584 154.04 11.3493 153.592 11.2C153.144 11.0293 152.59 10.944 151.928 10.944C151.139 10.944 150.51 11.104 150.04 11.424C149.592 11.744 149.368 12.1813 149.368 12.736C149.368 13.2693 149.603 13.6747 150.072 13.952C150.542 14.2293 151.448 14.5067 152.792 14.784C154.222 15.0827 155.342 15.424 156.152 15.808C156.963 16.192 157.539 16.672 157.88 17.248C158.243 17.824 158.424 18.56 158.424 19.456C158.424 20.9067 157.816 22.0693 156.6 22.944C155.406 23.8187 153.806 24.256 151.8 24.256Z" fill="#212121"/>
</svg>
